<svg width="40" height="40" viewBox="0 0 40 40" fill="none" xmlns="http://www.w3.org/2000/svg">
<path fill-rule="evenodd" clip-rule="evenodd" d="M19.9998 38.3334C9.87462 38.3334 1.6665 30.1253 1.6665 20.0001C1.6665 9.87486 9.87462 1.66675 19.9998 1.66675C30.1251 1.66675 38.3332 9.87486 38.3332 20.0001C38.3332 30.1253 30.1251 38.3334 19.9998 38.3334ZM19.9998 35.0001C28.2841 35.0001 34.9998 28.2844 34.9998 20.0001C34.9998 11.7158 28.2841 5.00008 19.9998 5.00008C11.7156 5.00008 4.99984 11.7158 4.99984 20.0001C4.99984 28.2844 11.7156 35.0001 19.9998 35.0001ZM28.3332 18.3334H17.3569L21.1783 14.5119L18.8213 12.1549L10.9761 20.0001L18.8213 27.8453L21.1783 25.4882L17.3569 21.6667H28.3332V18.3334Z" fill="#E5E5E5"/>
</svg>
