<svg width="98" height="12" viewBox="0 0 98 12" fill="none" xmlns="http://www.w3.org/2000/svg">
<path d="M0.308105 11.6V0.896729H3.81811V9.03723H9.61411V11.6H0.308105Z" fill="white"/>
<path d="M13.7894 0.896729H17.7134L21.7814 11.6H18.2174L17.4434 9.50456H14.0414L13.2854 11.6H9.7034L13.7894 0.896729ZM16.8854 7.54481L15.7514 3.77605L14.5634 7.54481H16.8854Z" fill="white"/>
<path d="M22.2313 9.4141L28.0273 3.45948H22.5013V0.896729H32.2573V3.0826L26.8213 9.03723H32.3653V11.6H22.2313V9.4141Z" fill="white"/>
<path d="M36.6325 0.896729L38.9185 5.26848L41.2585 0.896729H45.0745L40.6645 8.05735V11.6H37.1725V8.02721L32.8345 0.896729H36.6325Z" fill="white"/>
<path d="M53.4468 11.6V0.896729H56.9568V11.6H53.4468Z" fill="white"/>
<path d="M63.2026 11.6V0.896729H68.1166C69.5326 0.896729 70.7146 1.13793 71.6626 1.62033C72.6226 2.09268 73.3426 2.73588 73.8226 3.54993C74.3146 4.35393 74.5606 5.24838 74.5606 6.23328C74.5606 7.31868 74.2906 8.26338 73.7506 9.06738C73.2226 9.87138 72.4726 10.4945 71.5006 10.9367C70.5406 11.3789 69.4126 11.6 68.1166 11.6H63.2026ZM70.9966 6.23328C70.9966 5.68053 70.8826 5.19813 70.6546 4.78608C70.4266 4.36398 70.0966 4.03735 69.6646 3.8062C69.2326 3.57505 68.7166 3.45948 68.1166 3.45948H66.7126V9.03723H68.1166C68.7286 9.03723 69.2446 8.91663 69.6646 8.67543C70.0966 8.43423 70.4266 8.10258 70.6546 7.68048C70.8826 7.24833 70.9966 6.76593 70.9966 6.23328Z" fill="white"/>
<path d="M80.1304 11.6V0.896729H83.6404V9.03723H89.4364V11.6H80.1304Z" fill="white"/>
<path d="M94.1753 11.6V0.896729H97.6853V11.6H94.1753Z" fill="white"/>
</svg>
